<?xml version="1.0" encoding="utf-8"?>
<!-- Generator: Adobe Illustrator 24.0.0, SVG Export Plug-In . SVG Version: 6.00 Build 0)  -->
<svg version="1.1" xmlns="http://www.w3.org/2000/svg" xmlns:xlink="http://www.w3.org/1999/xlink" x="0px" y="0px"
	 viewBox="0 0 425.2 425.2" style="enable-background:new 0 0 425.2 425.2;" xml:space="preserve">
<style type="text/css">
	.st0{fill:#5B6670;}
	.st1{fill:#005172;}
	.st2{fill:#00A599;}
	.st3{fill:#03394F;}
	.st4{fill:none;stroke:#03394F;stroke-width:4.3801;stroke-miterlimit:10;}
	.st5{fill:none;stroke:#03394F;stroke-width:6.5569;stroke-miterlimit:10;}
	.st6{fill:none;stroke:#03394F;stroke-width:6.5087;stroke-miterlimit:10;}
	.st7{fill:#005373;}
	.st8{display:none;}
	.st9{display:inline;fill:none;stroke:#F0047F;stroke-width:0.7087;stroke-miterlimit:10;}
	.st10{display:inline;fill:#FFFFFF;}
</style>
<g id="Layer_1">
	<g>
		<path class="st0" d="M342.4,176.1c5.8-13.9-2.2-65.1-3.3-71.4c0,0,0,0,0,0c-1.8-29.5-14.7-44.4-17.2-47c-0.2-0.2-0.6-0.2-0.8,0
			l-4.3,4.5c-0.2,0.2-0.2,0.5,0,0.8c1.1,1.2,4.7,5.4,8.1,12.8c0.1,0.1,0.1,0.2,0,0.4c-1.4,5.9-5.2,21.7-10.3,31
			c-4.4,8.1-6.8,9.5-13.2,13.2c-2.4,1.4-5.4,3.1-9,5.6c-10,6.7-20.4,16.8-25.4,21.9c-0.2,0.2-0.5,0.2-0.7,0.1
			c-7.4-4.8-16.4-10.1-25-13.7c-19.7-8.1-41.4-8.1-61.1,0c-8.7,3.6-17.7,8.9-25,13.7c-0.2,0.1-0.5,0.1-0.7-0.1
			c-5-5.1-15.4-15.2-25.4-21.9c-3.7-2.5-6.7-4.2-9-5.6c-6.4-3.7-8.8-5.1-13.2-13.2c-5.3-9.7-9.2-25.4-10.5-30.6c0-0.1,0-0.2,0-0.4
			c3.5-7.7,7.1-12,8.3-13.3c0.2-0.2,0.2-0.5,0-0.8l-2.2-2.3l-2.2-2.3c-0.2-0.2-0.6-0.2-0.8,0c-2.5,2.6-15.5,17.5-17.2,47
			c0,0,0,0,0,0c-1,6.3-9,57.6-3.3,71.4c5.4,12.9,23.6,30,27.1,33.1c0.2,0.2,0.2,0.4,0.1,0.7c-3.5,6.9-8.1,13.5-14,18.8
			c-14.6,13.1-12.9,39.4-8.9,59.2c4.4,21.7,13.2,43.3,18.8,51c3.6,4.8,9.4,11,10.6,12.2c0.1,0.1,0.1,0.1,0.2,0.1
			c3.3,1.6,6.2-0.5,6.4-3.3l0.6-7c0.1-0.6,0.8-0.7,1-0.2c4.2,7.8,9.6,16.2,17.1,21.9c7.4,5.5,10.2,6.6,11.9,6.6c0.3,0,0.6,0,0.9-0.1
			c1.1-0.2,2-0.8,2.6-1.8l0.5-0.8c0.1-0.1,0.1-0.2,0.1-0.3l-0.1-1c-0.8-15.3-1.1-41.7,1.9-47.8c2-4.2,5.1-6.7,7.5-8
			c0.3-0.2,0.6,0,0.8,0.3c3.5,8,11,23.7,18.1,26.9c7.7,3.4,26.6,11.5,26.8,11.6l0.7,0.3h1.9l0.7-0.3c0.2-0.1,19.1-8.1,26.8-11.6
			c7.1-3.2,14.6-18.8,18.1-26.9c0.1-0.3,0.5-0.4,0.8-0.3c2.4,1.4,5.5,3.9,7.5,8c2.9,6.1,2.7,32.6,1.9,47.8l-0.1,1
			c0,0.1,0,0.2,0.1,0.3l0.5,0.8c0.6,0.9,1.5,1.5,2.6,1.8c1.7,0.3,4,0.1,12.8-6.5c7.5-5.6,13-14.1,17.1-21.9c0.3-0.5,1-0.3,1,0.2
			l0.7,7.9c0,0.1,0,0.1,0.1,0.2c1.6,3.3,5.2,3.4,7.1,1.4c2-2.1,6.9-7.4,10-11.6c5.7-7.6,14.5-29.3,18.8-51c4-19.8,5.7-46.1-8.9-59.2
			c-6-5.3-10.5-11.9-14-18.8c-0.1-0.2-0.1-0.5,0.1-0.7C318.8,206,337,189,342.4,176.1z M85.7,173.2c-2.2-5.3-1.8-19.6-0.4-35.1
			c0.1-0.6,0.9-0.7,1.1-0.1c1.8,4.9,4.3,9.4,7.3,13.5c5.8,7.8,13.5,13.7,22.9,17.7c0.3,0.1,0.5,0.2,0.8,0.3
			c-0.4,4.7-2.1,18.2-7.5,32.1c-0.1,0.4-0.6,0.5-0.9,0.2C103.2,196.4,89.7,183,85.7,173.2z M324.2,234.2
			c21.9,19.6-0.7,86.4-10.9,100.3c-1.1,1.5-2.4,3.1-3.8,4.6c-0.3,0.4-0.9,0.2-1-0.3l-0.7-7.7c-0.1-2.4-1.8-4.4-4.1-4.9
			c-2.4-0.5-4.7,0.6-5.8,2.8l-0.5,0.9c-4.3,8.5-10.1,20.2-18.8,26.7c-1.1,0.8-2.1,1.5-3,2.1c-0.4,0.3-0.9,0-0.9-0.5
			c0.4-12.5,0.8-36.6-2.9-44.2c-5.1-10.7-15.3-13.4-15.8-13.5l-2.7-0.7c-0.3-0.1-0.6,0.1-0.7,0.3l-1,2.6
			c-4.6,11.5-11.9,25.1-15.9,26.8c-6.4,2.9-20.6,8.9-25.2,10.9c-0.1,0.1-0.3,0.1-0.4,0c-4.6-2-18.8-8-25.2-10.9
			c-4-1.8-11.3-15.3-15.9-26.8l-1-2.6c-0.1-0.3-0.4-0.4-0.7-0.3l-2.7,0.7c-0.4,0.1-10.6,2.9-15.8,13.5c-3.7,7.6-3.3,31.7-2.9,44.2
			c0,0.5-0.5,0.7-0.9,0.5c-0.8-0.6-1.8-1.3-3-2.1c-8.7-6.5-14.5-18.2-18.8-26.7l-0.5-0.9c-1.1-2.2-3.4-3.3-5.8-2.8
			c-2.3,0.5-4,2.5-4.1,4.9l-0.7,7.7c0,0.5-0.7,0.7-1,0.3c-1.3-1.6-2.7-3.2-3.8-4.6C97.6,320.7,75.1,253.8,97,234.2
			c20.2-18.1,25.8-48.1,27.3-60.5c0.4-0.2,0.4-0.2,0.8-0.4c4.4,2.3,8.9,4.9,13.2,7.7c0.2,0.1,0.3,0.4,0.2,0.6
			c-2.5,7.6-6.1,19.4-5.3,23.8c1.3,7.3,7.6,10.1,10.5,10.4c0.2,0,0.4,0,0.6,0c2.8,3.7,8,10.1,11.1,12.2c4.5,3,8.8,4.7,16.5,2.2
			c7.7-2.5,7.2-5.5,9.2-5.4c0.1,0,0.2,0,0.2,0c1,1.6,1.8,3,2.4,4l3.1,6.2c0.1,0.3,0.5,0.4,0.7,0.2l5.6-2.8c0.3-0.1,0.4-0.5,0.2-0.7
			l-3.1-6.2c-3.4-6.9-17.1-25.2-26.3-34.4c-7.9-7.9-23.7-18.1-35.4-24.2c-1.6-0.8-3.2-1.6-4.7-2.3c-1.6-0.8-3.2-1.5-4.6-2.1
			c-13.9-5.8-30.5-19.6-30.1-52.3c0.1-7.2,0.9-13.5,2.1-19c0.1-0.6,0.9-0.6,1.1,0c2,6.5,4.6,13.9,7.7,19.7c5.4,9.9,9.1,12.1,15.9,16
			c2.4,1.4,5.2,3,8.7,5.3c8.7,5.8,18,14.6,23.2,19.8c0.2,0.2,0.2,0.6-0.1,0.8c-4.2,3-7.3,5.3-8.4,6.2c-0.2,0.2-0.3,0.5-0.1,0.8
			l3.9,4.9c0.2,0.2,0.5,0.3,0.8,0.1c3.1-2.4,22-16.8,38.8-23.7c18.2-7.5,37.4-7.5,55.5,0c16.8,6.9,35.7,21.3,38.8,23.7
			c0.2,0.2,0.6,0.1,0.8-0.1l3.9-4.9c0.2-0.2,0.1-0.6-0.1-0.8c-1.1-0.9-4.2-3.2-8.4-6.2c-0.3-0.2-0.3-0.6-0.1-0.8
			c5.2-5.2,14.5-14,23.2-19.8c3.5-2.3,6.2-3.9,8.7-5.3c6.8-4,10.5-6.1,15.9-16c3.1-5.7,5.7-13.3,7.7-20c0.2-0.6,1-0.5,1.1,0
			c1.2,5.6,2.1,12,2.1,19.3c0.4,32.7-16.1,46.5-30.1,52.3c-1.4,0.6-3,1.3-4.6,2.1c-1.5,0.7-3,1.5-4.7,2.3
			c-11.6,6.1-27.5,16.4-35.4,24.2c-9.2,9.2-22.9,27.5-26.3,34.4l-3.1,6.2c-0.1,0.3,0,0.6,0.2,0.7l5.6,2.8c0.3,0.1,0.6,0,0.7-0.2
			l3.1-6.2c0.5-1.1,1.4-2.5,2.4-4.2c0.1,0.1,0.3,0.2,0.5,0.1c2-0.1,1.5,2.9,9.2,5.4c7.7,2.5,12,0.8,16.5-2.2
			c3.1-2.1,8.3-8.5,11.1-12.2c0.2,0,0.4,0,0.6,0c2.9-0.2,9.2-3.1,10.5-10.4c0.8-4.5-2.8-16.5-5.4-24c-0.1-0.2,0-0.5,0.2-0.6
			c4.2-2.7,8.7-5.2,12.9-7.5c0.4,0.2,0.4,0.2,0.8,0.4C298.4,186.1,304.1,216.2,324.2,234.2z M168.4,209.5
			c-10.2-3.1-18.7-1.9-22.8-1.3c-0.4,0.1-0.9,0.1-1.2,0.2c-0.1,0-0.1,0-0.2,0c-0.8-0.3-3.2-1.4-3.7-4.3c-0.3-2,1.7-9.9,4.3-18
			c0.1-0.4,0.5-0.5,0.9-0.3c5.4,3.8,10.1,7.4,13.1,10.4c3.6,3.6,8.1,8.9,12.3,14.2C170.2,210.1,169.3,209.8,168.4,209.5z M281,204.1
			c-0.5,2.9-2.9,4-3.7,4.3c-0.1,0-0.1,0-0.2,0c-0.3,0-0.8-0.1-1.2-0.2c-4.1-0.6-12.6-1.8-22.8,1.3c-1.1,0.4-2.2,0.7-3.2,1.1
			c4.2-5.4,8.7-10.7,12.4-14.4c3.1-3.1,7.8-6.8,13.3-10.6c0.3-0.2,0.7-0.1,0.9,0.3C279.3,194.1,281.4,202.1,281,204.1z M312.4,201.8
			c-0.3,0.3-0.8,0.2-0.9-0.2c-5.4-14-7.1-27.4-7.5-32.1c0.3-0.1,0.5-0.2,0.8-0.3c9.4-3.9,17.1-9.9,22.9-17.7c3-4,5.4-8.5,7.3-13.5
			c0.2-0.6,1-0.4,1.1,0.1c1.4,15.4,1.8,29.8-0.4,35.1C331.5,183,318.1,196.4,312.4,201.8z"/>
		<path class="st0" d="M254.1,263c-0.2,0.2-0.3,0.5-0.1,0.8c1.1,1.5,4.7,6.8,4.5,12.5c-0.1,2.6-1,4.8-2.6,6.9
			c-6.7,8.3-13.9,9.6-18.7,10.4c-1,0.2-1.9,0.3-2.7,0.5c-2.2,0.6-8.9-0.1-14.1-0.8c-0.2,0-0.3-0.2-0.4-0.3l-4.9-11.1
			c-0.1-0.2-0.1-0.3,0-0.5l1.5-2.7c0-0.1,0.1-0.2,0.2-0.2l19.6-11.1l0,0l-0.6-19.6c0-0.3-0.3-0.5-0.6-0.5l-5.2,0.2
			c-0.3,0-0.5,0.3-0.5,0.6l0.4,13.6c0,0.3-0.2,0.5-0.5,0.6l-18.7,3.2c-0.1,0-0.1,0-0.2,0l-18.6-3.2c-0.3,0-0.5-0.3-0.5-0.6l0.4-13.6
			c0-0.3-0.2-0.6-0.5-0.6l-5.2-0.2c-0.3,0-0.6,0.2-0.6,0.5l-0.6,19.7l0.1,0l-0.1,0.1l19.4,11c0.1,0,0.2,0.1,0.2,0.2l1.5,2.7
			c0.1,0.2,0.1,0.3,0,0.5l-4.9,11.1c-0.1,0.2-0.2,0.3-0.4,0.3c-5.2,0.7-11.9,1.4-14.1,0.8c-0.8-0.2-1.7-0.4-2.7-0.5
			c-4.8-0.8-12-2.1-18.7-10.4c-1.7-2.1-2.5-4.4-2.6-6.9c-0.2-5.7,3.4-11,4.5-12.5c0.2-0.2,0.1-0.6-0.1-0.8l-4.8-4
			c-0.2-0.2-0.6-0.2-0.8,0.1c-1.4,1.9-6.5,9.1-6.2,17.5c0.2,4.1,1.6,7.9,4.3,11.2c8.4,10.5,18,12.2,23.2,13.1
			c0.9,0.2,1.6,0.3,2.2,0.4c1.2,0.3,2.8,0.4,4.6,0.4c5.6,0,13-1.2,14.8-1.5l1.7-0.3c0.2,0,0.3-0.2,0.4-0.3l3.7-8.4
			c0.2-0.4,0.8-0.4,1,0l3.7,8.4c0.1,0.2,0.2,0.3,0.4,0.3l1.7,0.3c1.8,0.3,9.2,1.5,14.8,1.5c1.8,0,3.4-0.1,4.6-0.4
			c0.6-0.1,1.3-0.3,2.2-0.4c5.2-0.9,14.8-2.6,23.2-13.1c2.7-3.3,4.1-7.1,4.2-11.2c0.3-8.4-4.7-15.6-6.2-17.5
			c-0.2-0.3-0.5-0.3-0.8-0.1L254.1,263z"/>
		<path class="st0" d="M270.6,271.6l-1.5,5.5c-0.1,0.4,0.1,0.9,0.6,1c5.8,1.7,19,6.7,23.2,13.9c0.2,0.4,0.7,0.5,1.1,0.3l5.1-2.6
			c0.4-0.2,0.6-0.7,0.4-1.1c-6.1-10.8-23.8-16.5-27.9-17.6C271.2,270.9,270.7,271.1,270.6,271.6z"/>
		<path class="st0" d="M149.6,271c-4.1,1.2-21.8,6.8-27.9,17.6c-0.2,0.4-0.1,0.9,0.4,1.1l5.1,2.6c0.4,0.2,0.9,0,1.1-0.3
			c4.3-7.2,17.4-12.2,23.2-13.9c0.4-0.1,0.7-0.6,0.6-1l-0.7-2.8l-0.7-2.7C150.5,271.1,150,270.9,149.6,271z"/>
	</g>
</g>
<g id="Guides" class="st8">
	<rect x="56.9" y="56.9" class="st9" width="309.1" height="311.8"/>
</g>
</svg>
