<svg xmlns="http://www.w3.org/2000/svg" width="116" height="116" viewBox="0 0 116 116">
  <defs>
    <linearGradient id="logo-a" x1="100%" x2="0%" y1="50%" y2="50%">
      <stop offset="0%" stop-color="#D72152"/>
      <stop offset="100%" stop-color="#A4153C"/>
    </linearGradient>
    <linearGradient id="logo-b" x1="100%" x2="0%" y1="50%" y2="50%">
      <stop offset="0%" stop-color="#D72152"/>
      <stop offset="100%" stop-color="#A4153C"/>
    </linearGradient>
    <linearGradient id="logo-c" x1="100%" x2="0%" y1="50%" y2="50%">
      <stop offset="0%" stop-color="#D72152"/>
      <stop offset="100%" stop-color="#A4153C"/>
    </linearGradient>
    <linearGradient id="logo-d" x1="100%" x2="0%" y1="50%" y2="50%">
      <stop offset="0%" stop-color="#D72152"/>
      <stop offset="100%" stop-color="#A4153C"/>
    </linearGradient>
  </defs>
  <g fill="none" transform="translate(8)">
    <path fill="url(#logo-a)" d="M100.023792,44.1392971 C102.201487,38.9878594 99.1977695,20.0127796 98.7847584,17.6779553 C98.7847584,17.6779553 98.7847584,17.6779553 98.7847584,17.6779553 C98.1089219,6.74504792 93.2654275,1.22300319 92.3267658,0.25942492 C92.2516729,0.185303514 92.101487,0.185303514 92.0263941,0.25942492 L90.4118959,1.92715655 C90.336803,2.00127796 90.336803,2.11246006 90.4118959,2.22364217 C90.8249071,2.66837061 92.1765799,4.22492013 93.4531599,6.96741214 C93.4907063,7.00447284 93.4907063,7.04153355 93.4531599,7.11565495 C92.9275093,9.30223642 91.5007435,15.1578275 89.5858736,18.6044728 C87.933829,21.6063898 87.0327138,22.1252396 84.6297398,23.4964856 C83.7286245,24.0153355 82.6022305,24.6453674 81.2505576,25.571885 C77.4959108,28.0549521 73.5910781,31.7980831 71.7137546,33.6881789 C71.6386617,33.7623003 71.5260223,33.7623003 71.4509294,33.7252396 C68.6724907,31.9463259 65.2933086,29.9821086 62.0643123,28.6479233 C54.667658,25.6460064 46.5200743,25.6460064 39.1234201,28.6479233 C35.8568773,29.9821086 32.4776952,31.9463259 29.736803,33.7252396 C29.66171,33.7623003 29.5490706,33.7623003 29.4739777,33.6881789 C27.5966543,31.7980831 23.6918216,28.0549521 19.9371747,25.571885 C18.5479554,24.6453674 17.4215613,24.0153355 16.5579926,23.4964856 C14.1550186,22.1252396 13.2539033,21.6063898 11.6018587,18.6044728 C9.61189591,15.0095847 8.14758364,9.19105431 7.65947955,7.26389776 C7.65947955,7.22683706 7.65947955,7.18977636 7.65947955,7.11565495 C8.97360595,4.26198083 10.3252788,2.66837061 10.7758364,2.18658147 C10.8509294,2.11246006 10.8509294,2.00127796 10.7758364,1.89009585 L9.94981413,1.03769968 L9.12379182,0.185303514 C9.04869888,0.111182109 8.89851301,0.111182109 8.82342007,0.185303514 C7.88475836,1.14888179 3.00371747,6.67092652 2.36542751,17.6038339 C2.36542751,17.6038339 2.36542751,17.6038339 2.36542751,17.6038339 C1.98996283,19.9386581 -1.01375465,38.9507987 1.12639405,44.0651757 C3.15390335,48.8460064 9.98736059,55.1833866 11.301487,56.3322684 C11.3765799,56.4063898 11.3765799,56.4805112 11.3390335,56.5916933 C10.0249071,59.1488818 8.29776952,61.5948882 6.08252788,63.5591054 C0.600743494,68.4140575 1.23903346,78.1610224 2.74089219,85.4990415 C4.3929368,93.5412141 7.69702602,101.546326 9.79962825,104.4 C11.1513011,106.178914 13.3289963,108.476677 13.7795539,108.921406 C13.8171004,108.958466 13.8171004,108.958466 13.8546468,108.958466 C15.0936803,109.551438 16.1825279,108.773163 16.2576208,107.735463 L16.4828996,105.141214 C16.5204461,104.91885 16.7832714,104.881789 16.8583643,105.067093 C18.435316,107.957827 20.4628253,111.070927 23.2788104,113.183387 C26.0572491,115.221725 27.1085502,115.629393 27.7468401,115.629393 C27.8594796,115.629393 27.972119,115.629393 28.0847584,115.592332 C28.4977695,115.518211 28.8356877,115.295847 29.0609665,114.92524 L29.2486989,114.628754 C29.2862454,114.591693 29.2862454,114.554633 29.2862454,114.517572 L29.2486989,114.146965 C28.9483271,108.476677 28.8356877,98.6926518 29.9620818,96.4319489 C30.7130112,94.8753994 31.8769517,93.9488818 32.7780669,93.4670927 C32.8907063,93.3929712 33.0033457,93.4670927 33.0784387,93.5782748 C34.3925651,96.543131 37.2085502,102.361661 39.8743494,103.547604 C42.7654275,104.807668 49.86171,107.809585 49.936803,107.846645 L50.1996283,107.957827 L50.9130112,107.957827 L51.1758364,107.846645 C51.2509294,107.809585 58.3472119,104.844728 61.23829,103.547604 C63.9040892,102.361661 66.7200743,96.5801917 68.0342007,93.5782748 C68.0717472,93.4670927 68.2219331,93.4300319 68.3345725,93.4670927 C69.2356877,93.9859425 70.3996283,94.9124601 71.1505576,96.4319489 C72.2394052,98.6926518 72.1643123,108.513738 71.8639405,114.146965 L71.8263941,114.517572 C71.8263941,114.554633 71.8263941,114.591693 71.8639405,114.628754 L72.0516729,114.92524 C72.2769517,115.258786 72.6148699,115.48115 73.027881,115.592332 C73.666171,115.703514 74.5297398,115.629393 77.833829,113.183387 C80.6498141,111.107987 82.7148699,107.957827 84.2542751,105.067093 C84.3669145,104.881789 84.6297398,104.955911 84.6297398,105.141214 L84.8925651,108.06901 C84.8925651,108.10607 84.8925651,108.10607 84.9301115,108.143131 C85.530855,109.366134 86.8825279,109.403195 87.5959108,108.661981 C88.3468401,107.883706 90.1866171,105.919489 91.3505576,104.362939 C93.4907063,101.546326 96.7947955,93.5041534 98.4092937,85.4619808 C99.9111524,78.1239617 100.549442,68.3769968 95.067658,63.5220447 C92.8148699,61.5578275 91.1252788,59.1118211 89.8111524,56.5546326 C89.7736059,56.4805112 89.7736059,56.3693291 89.8486989,56.2952077 C91.1628253,55.2204473 97.9962825,48.9201278 100.023792,44.1392971 Z M3.64200743,43.0645367 C2.81598513,41.1003195 2.966171,35.800639 3.49182156,30.05623 C3.52936803,29.8338658 3.82973978,29.7968051 3.90483271,30.0191693 C4.58066914,31.8351438 5.51933086,33.5028754 6.64572491,35.0223642 C8.82342007,37.913099 11.7144981,40.0996805 15.2438662,41.5821086 C15.3565056,41.6191693 15.4315985,41.65623 15.5442379,41.6932907 C15.394052,43.4351438 14.7557621,48.4383387 12.7282528,53.5897764 C12.6907063,53.7380192 12.502974,53.7750799 12.3903346,53.6638978 C10.2126394,51.6626198 5.14386617,46.6964856 3.64200743,43.0645367 Z M93.1903346,65.6715655 C101.413011,72.9354633 92.9275093,97.6920128 89.0977695,102.84345 C88.6847584,103.399361 88.1966543,103.992332 87.6710037,104.548243 C87.5583643,104.696486 87.3330855,104.622364 87.295539,104.437061 L87.0327138,101.583387 C86.9951673,100.69393 86.3568773,99.9527157 85.4933086,99.7674121 C84.5921933,99.5821086 83.7286245,99.9897764 83.3156134,100.805112 L83.127881,101.138658 C81.5133829,104.288818 79.3356877,108.62492 76.069145,111.033866 C75.6561338,111.330351 75.2806691,111.589776 74.9427509,111.812141 C74.7925651,111.923323 74.6048327,111.812141 74.6048327,111.626837 C74.7550186,106.994249 74.9052045,98.0626198 73.5159851,95.2460064 C71.6011152,91.2805112 67.7713755,90.2798722 67.5836431,90.2428115 L66.5698885,89.9833866 C66.4572491,89.9463259 66.3446097,90.0204473 66.3070632,90.0945687 L65.9315985,91.058147 C64.204461,95.3201278 61.4635688,100.360383 59.96171,100.990415 C57.5587361,102.065176 52.2271375,104.288818 50.5,105.030032 C50.4624535,105.067093 50.3873606,105.067093 50.3498141,105.030032 C48.6226766,104.288818 43.2910781,102.065176 40.8881041,100.990415 C39.3862454,100.323323 36.6453532,95.3201278 34.9182156,91.058147 L34.5427509,90.0945687 C34.5052045,89.9833866 34.3925651,89.9463259 34.2799257,89.9833866 L33.266171,90.2428115 C33.1159851,90.2798722 29.2862454,91.3175719 27.333829,95.2460064 C25.9446097,98.0626198 26.0947955,106.994249 26.2449814,111.626837 C26.2449814,111.812141 26.0572491,111.886262 25.9070632,111.812141 C25.6066914,111.589776 25.2312268,111.330351 24.7806691,111.033866 C21.5141264,108.62492 19.3364312,104.288818 17.7219331,101.138658 L17.5342007,100.805112 C17.1211896,99.9897764 16.2576208,99.5821086 15.3565056,99.7674121 C14.4929368,99.9527157 13.8546468,100.69393 13.8171004,101.583387 L13.5542751,104.437061 C13.5542751,104.622364 13.2914498,104.696486 13.1788104,104.548243 C12.6907063,103.955272 12.1650558,103.3623 11.7520446,102.84345 C8.11003717,97.7290735 -0.337918216,72.9354633 7.88475836,65.6715655 C15.469145,58.9635783 17.5717472,47.8453674 18.1349442,43.2498403 C18.2851301,43.1757188 18.2851301,43.1757188 18.435316,43.1015974 C20.0873606,43.9539936 21.7769517,44.9175719 23.3914498,45.9552716 C23.4665428,45.9923323 23.5040892,46.1035144 23.4665428,46.1776358 C22.527881,48.9942492 21.1762082,53.3674121 21.4765799,54.9980831 C21.964684,57.7035144 24.3301115,58.7412141 25.4189591,58.8523962 C25.494052,58.8523962 25.569145,58.8523962 25.6442379,58.8523962 C26.695539,60.2236422 28.6479554,62.5955272 29.8118959,63.3738019 C31.501487,64.485623 33.1159851,65.115655 36.0070632,64.1891374 C38.8981413,63.2626198 38.7104089,62.1507987 39.4613383,62.1878594 C39.4988848,62.1878594 39.5364312,62.1878594 39.5364312,62.1878594 C39.9118959,62.7808307 40.2122677,63.2996805 40.4375465,63.6702875 L41.601487,65.9680511 C41.6390335,66.0792332 41.7892193,66.1162939 41.8643123,66.0421725 L43.9669145,65.0044728 C44.0795539,64.9674121 44.1171004,64.8191693 44.0420074,64.7450479 L42.8780669,62.4472843 C41.601487,59.8900958 36.4576208,53.1079872 33.0033457,49.6984026 C30.0371747,46.770607 24.1048327,42.9904153 19.7118959,40.7297125 C19.1111524,40.4332268 18.5104089,40.1367412 17.9472119,39.8773163 C17.3464684,39.5808307 16.7457249,39.3214058 16.2200743,39.0990415 C11.0011152,36.9495208 4.76840149,31.8351438 4.91858736,19.7162939 C4.95613383,17.0479233 5.25650558,14.713099 5.7070632,12.6747604 C5.74460967,12.4523962 6.04498141,12.4523962 6.12007435,12.6747604 C6.87100372,15.0837061 7.8472119,17.8261981 9.01115242,19.9757188 C11.0386617,23.6447284 12.427881,24.4600639 14.9810409,25.9054313 C15.8821561,26.4242812 16.9334572,27.0172524 18.2475836,27.8696486 C21.5141264,30.0191693 25.005948,33.2805112 26.9583643,35.2076677 C27.0334572,35.2817891 27.0334572,35.4300319 26.9208178,35.5041534 C25.3438662,36.6159744 24.1799257,37.4683706 23.7669145,37.8019169 C23.6918216,37.8760383 23.6542751,37.9872204 23.729368,38.0984026 L25.1936803,39.914377 C25.2687732,39.9884984 25.3814126,40.0255591 25.494052,39.9514377 C26.6579926,39.0619808 33.7542751,33.7252396 40.0620818,31.1680511 C46.895539,28.3884984 54.104461,28.3884984 60.9003717,31.1680511 C67.2081784,33.7252396 74.304461,39.0619808 75.4684015,39.9514377 C75.5434944,40.0255591 75.6936803,39.9884984 75.7687732,39.914377 L77.2330855,38.0984026 C77.3081784,38.0242812 77.270632,37.8760383 77.195539,37.8019169 C76.7825279,37.4683706 75.6185874,36.6159744 74.0416357,35.5041534 C73.9289963,35.4300319 73.9289963,35.2817891 74.0040892,35.2076677 C75.9565056,33.2805112 79.4483271,30.0191693 82.7148699,27.8696486 C84.0289963,27.0172524 85.0427509,26.4242812 85.9814126,25.9054313 C88.5345725,24.4230032 89.9237918,23.6447284 91.9513011,19.9757188 C93.1152416,17.8632588 94.0914498,15.0466454 94.8423792,12.5635783 C94.9174721,12.3412141 95.2178439,12.3782748 95.2553903,12.5635783 C95.705948,14.6389776 96.0438662,17.0108626 96.0438662,19.7162939 C96.194052,31.8351438 89.9988848,36.9495208 84.7423792,39.0990415 C84.2167286,39.3214058 83.6159851,39.5808307 83.0152416,39.8773163 C82.4520446,40.1367412 81.8888476,40.4332268 81.2505576,40.7297125 C76.8951673,42.9904153 70.9252788,46.8076677 67.9591078,49.6984026 C64.5048327,53.1079872 59.3609665,59.8900958 58.0843866,62.4472843 L56.9204461,64.7450479 C56.8828996,64.85623 56.9204461,64.9674121 56.995539,65.0044728 L59.0981413,66.0421725 C59.2107807,66.0792332 59.3234201,66.0421725 59.3609665,65.9680511 L60.5249071,63.6702875 C60.7126394,63.2626198 61.0505576,62.74377 61.4260223,62.113738 C61.4635688,62.1507987 61.5386617,62.1878594 61.6137546,62.1507987 C62.364684,62.113738 62.1769517,63.2255591 65.0680297,64.1520767 C67.9591078,65.0785942 69.5736059,64.4485623 71.263197,63.3367412 C72.4271375,62.5584665 74.3795539,60.1865815 75.430855,58.8153355 C75.505948,58.8153355 75.5810409,58.8153355 75.6561338,58.8153355 C76.7449814,58.7412141 79.1104089,57.6664537 79.598513,54.9610224 C79.8988848,53.2932907 78.5472119,48.8460064 77.5710037,46.0664537 C77.5334572,45.9923323 77.5710037,45.8811502 77.6460967,45.8440895 C79.2230483,44.8434505 80.9126394,43.9169329 82.4895911,43.0645367 C82.639777,43.1386581 82.639777,43.1386581 82.7899628,43.2127796 C83.5033457,47.8453674 85.6434944,59.000639 93.1903346,65.6715655 Z M34.6929368,56.5175719 C30.863197,55.3686901 27.6717472,55.8134185 26.132342,56.0357827 C25.9821561,56.0728435 25.7944238,56.0728435 25.6817844,56.1099042 C25.6442379,56.1099042 25.6442379,56.1099042 25.6066914,56.1099042 C25.3063197,55.998722 24.4052045,55.5910543 24.2174721,54.5162939 C24.1048327,53.7750799 24.8557621,50.8472843 25.8319703,47.8453674 C25.8695167,47.6971246 26.0197026,47.6600639 26.1698885,47.7341853 C28.1973978,49.142492 29.9620818,50.4766773 31.0884758,51.5884984 C32.4401487,52.9226837 34.1297398,54.886901 35.7066914,56.8511182 C35.3687732,56.7399361 35.030855,56.628754 34.6929368,56.5175719 Z M76.9702602,54.5162939 C76.7825279,55.5910543 75.8814126,55.998722 75.5810409,56.1099042 C75.5434944,56.1099042 75.5434944,56.1099042 75.505948,56.1099042 C75.3933086,56.1099042 75.2055762,56.0728435 75.0553903,56.0357827 C73.5159851,55.8134185 70.3245353,55.3686901 66.4947955,56.5175719 C66.0817844,56.6658147 65.6687732,56.7769968 65.2933086,56.9252396 C66.8702602,54.9239617 68.5598513,52.9597444 69.9490706,51.5884984 C71.1130112,50.4396166 72.8776952,49.0683706 74.9427509,47.6600639 C75.0553903,47.5859425 75.2055762,47.6230032 75.2806691,47.771246 C76.3319703,50.8102236 77.1204461,53.7750799 76.9702602,54.5162939 Z M88.7598513,53.6638978 C88.6472119,53.7750799 88.4594796,53.7380192 88.4219331,53.5897764 C86.3944238,48.401278 85.7561338,43.4351438 85.605948,41.6932907 C85.7185874,41.65623 85.7936803,41.6191693 85.9063197,41.5821086 C89.4356877,40.1367412 92.3267658,37.913099 94.504461,35.0223642 C95.630855,33.5399361 96.5319703,31.8722045 97.2453532,30.0191693 C97.3204461,29.7968051 97.6208178,29.8709265 97.6583643,30.05623 C98.1840149,35.7635783 98.3342007,41.1003195 97.5081784,43.0645367 C95.9312268,46.6964856 90.9,51.6626198 88.7598513,53.6638978 Z"/>
    <path fill="url(#logo-b)" d="M66.8702602,76.3450479 C66.7951673,76.4191693 66.7576208,76.5303514 66.8327138,76.6415335 C67.2457249,77.1974441 68.5973978,79.1616613 68.5223048,81.2741214 C68.4847584,82.2376997 68.1468401,83.0530351 67.5460967,83.8313099 C65.0304833,86.9073482 62.3271375,87.3891374 60.5249071,87.685623 C60.1494424,87.7597444 59.8115242,87.7968051 59.5111524,87.8709265 C58.6851301,88.0932907 56.1695167,87.8338658 54.2171004,87.5744409 C54.1420074,87.5744409 54.104461,87.5003195 54.0669145,87.4632588 L52.2271375,83.3495208 C52.1895911,83.2753994 52.1895911,83.2383387 52.2271375,83.1642173 L52.7903346,82.1635783 C52.7903346,82.1265176 52.827881,82.0894569 52.8654275,82.0894569 L60.2245353,77.9757188 L60.2245353,77.9757188 L59.9992565,70.7118211 C59.9992565,70.600639 59.8866171,70.5265176 59.7739777,70.5265176 L57.8215613,70.600639 C57.7089219,70.600639 57.633829,70.7118211 57.633829,70.8230032 L57.7840149,75.8632588 C57.7840149,75.9744409 57.7089219,76.0485623 57.5962825,76.085623 L50.5750929,77.2715655 C50.5375465,77.2715655 50.5375465,77.2715655 50.5,77.2715655 L43.5163569,76.085623 C43.4037175,76.085623 43.3286245,75.9744409 43.3286245,75.8632588 L43.4788104,70.8230032 C43.4788104,70.7118211 43.4037175,70.600639 43.2910781,70.600639 L41.3386617,70.5265176 C41.2260223,70.5265176 41.1133829,70.600639 41.1133829,70.7118211 L40.8881041,78.0127796 L40.9256506,78.0127796 L40.8881041,78.0498403 L48.172119,82.1265176 C48.2096654,82.1265176 48.2472119,82.1635783 48.2472119,82.200639 L48.8104089,83.201278 C48.8479554,83.2753994 48.8479554,83.3124601 48.8104089,83.3865815 L46.970632,87.5003195 C46.9330855,87.5744409 46.895539,87.6115016 46.8204461,87.6115016 C44.8680297,87.8709265 42.3524164,88.1303514 41.5263941,87.9079872 C41.2260223,87.8338658 40.8881041,87.7597444 40.5126394,87.7226837 C38.7104089,87.4261981 36.0070632,86.9444089 33.4914498,83.8683706 C32.8531599,83.0900958 32.5527881,82.2376997 32.5152416,81.3111821 C32.4401487,79.198722 33.7918216,77.2345048 34.2048327,76.6785942 C34.2799257,76.6044728 34.2423792,76.45623 34.1672862,76.3821086 L32.3650558,74.8996805 C32.2899628,74.8255591 32.139777,74.8255591 32.064684,74.9367412 C31.5390335,75.6408946 29.6241636,78.3092652 29.736803,81.4223642 C29.8118959,82.941853 30.3375465,84.3501597 31.3513011,85.5731629 C34.5052045,89.4645367 38.1096654,90.0945687 40.0620818,90.428115 C40.4,90.5022364 40.6628253,90.5392971 40.8881041,90.5763578 C41.3386617,90.6875399 41.9394052,90.7246006 42.6152416,90.7246006 C44.7178439,90.7246006 47.4962825,90.2798722 48.172119,90.1686901 L48.8104089,90.057508 C48.8855019,90.057508 48.9230483,89.9833866 48.9605948,89.9463259 L50.3498141,86.8332268 C50.4249071,86.684984 50.6501859,86.684984 50.7252788,86.8332268 L52.1144981,89.9463259 C52.1520446,90.0204473 52.1895911,90.057508 52.264684,90.057508 L52.902974,90.1686901 C53.5788104,90.2798722 56.3572491,90.7246006 58.4598513,90.7246006 C59.1356877,90.7246006 59.7364312,90.6875399 60.1869888,90.5763578 C60.4122677,90.5392971 60.6750929,90.4651757 61.0130112,90.428115 C62.9654275,90.0945687 66.5698885,89.4645367 69.7237918,85.5731629 C70.7375465,84.3501597 71.263197,82.941853 71.3007435,81.4223642 C71.4133829,78.3092652 69.5360595,75.6408946 68.9728625,74.9367412 C68.8977695,74.8255591 68.7851301,74.8255591 68.6724907,74.8996805 L66.8702602,76.3450479 Z"/>
    <path fill="url(#logo-c)" d="M73.0654275,79.5322684 L72.5022305,81.570607 C72.464684,81.7188498 72.539777,81.9041534 72.7275093,81.9412141 C74.9052045,82.571246 79.8613383,84.4242812 81.43829,87.0926518 C81.5133829,87.2408946 81.7011152,87.2779553 81.8513011,87.2038339 L83.766171,86.2402556 C83.9163569,86.1661342 83.9914498,85.9808307 83.9163569,85.8325879 C81.6260223,81.8300319 74.9802974,79.7175719 73.4408922,79.3099042 C73.2907063,79.2728435 73.102974,79.3469649 73.0654275,79.5322684 Z"/>
    <path fill="url(#logo-d)" d="M27.6342007,79.3099042 C26.0947955,79.7546326 19.4490706,81.8300319 17.1587361,85.8325879 C17.0836431,85.9808307 17.1211896,86.1661342 17.3089219,86.2402556 L19.2237918,87.2038339 C19.3739777,87.2779553 19.56171,87.2038339 19.636803,87.0926518 C21.2513011,84.4242812 26.1698885,82.571246 28.3475836,81.9412141 C28.4977695,81.9041534 28.6104089,81.7188498 28.5728625,81.570607 L28.3100372,80.5329073 L28.0472119,79.5322684 C27.972119,79.3469649 27.7843866,79.2728435 27.6342007,79.3099042 Z"/>
  </g>
</svg>
