<?xml version="1.0" standalone="no"?>
<!DOCTYPE svg PUBLIC "-//W3C//DTD SVG 20010904//EN"
 "http://www.w3.org/TR/2001/REC-SVG-20010904/DTD/svg10.dtd">
<svg version="1.0" xmlns="http://www.w3.org/2000/svg"
 width="700.000000pt" height="700.000000pt" viewBox="0 0 700.000000 700.000000"
 preserveAspectRatio="xMidYMid meet">
<metadata>
Created by potrace 1.14, written by Peter Selinger 2001-2017
</metadata>
<g transform="translate(0.000000,700.000000) scale(0.100000,-0.100000)"
fill="#000000" stroke="none">
<path d="M984 6954 c-16 -20 -39 -48 -50 -63 -86 -107 -198 -358 -250 -561
-18 -72 -18 -75 -29 -140 -4 -25 -9 -52 -10 -60 -2 -8 -6 -44 -9 -80 -13 -129
-17 -165 -21 -180 -2 -8 -7 -35 -10 -60 -6 -46 -14 -106 -20 -150 -2 -14 -11
-79 -19 -145 -16 -119 -20 -161 -32 -285 -3 -36 -7 -81 -9 -100 -9 -81 -19
-293 -19 -395 0 -267 21 -367 106 -508 96 -157 198 -278 421 -499 l138 -138
-32 -57 c-74 -135 -125 -200 -291 -372 -89 -92 -113 -124 -151 -203 -95 -191
-126 -411 -104 -733 7 -100 10 -122 27 -225 5 -30 12 -73 15 -95 13 -85 96
-406 141 -540 98 -296 215 -551 310 -678 29 -39 94 -115 144 -168 94 -102 123
-119 173 -100 38 14 56 49 63 117 8 92 12 112 19 124 4 7 30 -28 63 -82 117
-196 230 -328 367 -427 179 -129 262 -155 310 -99 23 27 24 30 18 180 -8 202
-8 483 0 638 11 200 27 280 69 346 33 54 92 112 134 135 24 12 28 12 32 -1 3
-8 37 -78 77 -155 91 -180 173 -306 244 -375 54 -52 73 -62 381 -194 180 -77
338 -139 355 -139 17 0 175 63 353 139 371 159 377 164 495 341 61 92 197 348
197 371 0 39 63 8 128 -62 62 -67 87 -123 98 -221 3 -27 8 -61 12 -75 3 -14 6
-224 6 -467 1 -408 3 -443 19 -461 45 -50 113 -33 261 65 105 70 224 181 293
273 51 68 150 225 158 251 12 37 43 17 36 -23 0 -5 4 -40 9 -80 15 -105 62
-144 135 -113 35 14 162 149 248 263 154 205 331 661 426 1100 16 75 32 155
35 177 4 22 9 54 11 70 3 17 7 43 10 59 35 220 14 635 -37 730 -6 12 -11 23
-11 26 1 12 -11 41 -49 119 -35 70 -61 105 -173 221 -123 128 -204 234 -269
353 l-26 48 168 167 c271 269 433 491 470 643 32 129 35 460 7 749 -13 124
-26 257 -30 285 -3 17 -12 84 -20 150 -9 66 -24 179 -35 250 -10 72 -22 162
-25 200 -4 39 -9 77 -10 85 -1 8 -6 35 -10 60 -12 76 -53 233 -86 326 -57 164
-183 387 -257 457 l-29 28 -55 -57 -55 -57 48 -63 c51 -68 107 -160 128 -211
11 -28 9 -46 -19 -160 -89 -353 -202 -611 -321 -733 -41 -42 -101 -90 -113
-90 -3 0 -58 -32 -123 -71 -235 -142 -391 -264 -626 -489 -48 -47 -95 -86
-103 -88 -8 -2 -44 15 -80 37 -36 23 -69 41 -75 41 -5 0 -9 3 -9 8 0 4 -10 12
-23 18 -12 6 -71 37 -132 70 -253 136 -422 197 -670 239 -121 20 -324 25 -470
12 -311 -30 -644 -161 -1017 -401 l-57 -36 -93 88 c-252 241 -428 377 -683
527 -169 99 -200 127 -272 237 -88 135 -170 348 -252 648 l-28 105 45 87 c25
48 69 119 98 158 l53 70 -53 55 c-29 30 -57 55 -62 55 -6 0 -24 -16 -40 -36z
m5255 -756 c31 -164 35 -215 36 -393 0 -166 -7 -257 -29 -361 -61 -286 -194
-505 -405 -665 -60 -46 -120 -78 -396 -210 -198 -95 -463 -256 -675 -412 -248
-183 -632 -644 -800 -961 -28 -54 -49 -103 -47 -110 6 -14 120 -71 134 -67 4
1 33 50 63 108 31 59 63 111 72 116 12 8 24 4 50 -19 111 -98 284 -144 404
-109 116 33 201 102 336 271 40 50 57 64 87 69 76 14 151 74 192 154 44 85 30
208 -55 483 l-43 137 46 29 c25 16 73 44 106 62 33 18 79 44 103 58 48 28 63
22 68 -25 1 -15 6 -44 9 -63 4 -19 9 -46 12 -60 41 -223 127 -484 226 -685
102 -207 187 -324 364 -500 71 -71 97 -106 125 -165 67 -140 92 -275 91 -485
0 -92 -12 -285 -18 -295 -2 -3 -6 -26 -9 -50 -8 -64 -33 -201 -45 -247 -5 -21
-12 -51 -15 -66 -10 -56 -86 -315 -126 -427 -100 -280 -200 -478 -299 -587
-35 -40 -51 -42 -52 -5 0 15 -2 36 -4 47 -2 11 -6 46 -9 78 -3 32 -10 66 -16
77 -19 36 -61 60 -105 60 -57 0 -91 -32 -144 -137 -133 -266 -271 -451 -406
-548 -37 -26 -69 -45 -71 -42 -3 2 -7 162 -9 353 -2 192 -6 369 -10 394 -18
132 -38 211 -66 269 -41 83 -152 196 -234 238 -53 27 -154 63 -177 63 -5 0
-16 -17 -25 -37 -9 -21 -22 -51 -29 -68 -31 -71 -135 -284 -161 -330 -108
-190 -133 -211 -378 -314 -200 -84 -253 -107 -333 -142 l-43 -19 -147 61 c-81
34 -165 69 -187 79 -22 10 -86 38 -143 61 -57 24 -118 56 -136 71 -70 57 -231
338 -316 550 -19 49 -41 88 -48 88 -29 0 -141 -44 -197 -78 -33 -20 -87 -64
-121 -98 -97 -100 -134 -193 -161 -414 -2 -19 -5 -190 -8 -380 -3 -281 -6
-344 -17 -342 -57 14 -207 160 -294 287 -64 95 -82 126 -165 283 -28 53 -64
109 -80 124 -52 49 -145 32 -180 -33 -5 -11 -13 -50 -16 -87 -3 -37 -6 -76 -8
-87 -2 -11 -4 -28 -4 -37 -4 -87 -172 163 -261 387 -77 193 -169 476 -185 568
-3 17 -8 33 -10 37 -4 7 -4 6 -39 180 -25 125 -29 153 -45 285 -13 109 -13
321 -1 420 13 110 35 191 71 270 39 85 56 107 167 220 115 117 150 160 225
275 51 79 166 300 179 345 3 11 18 54 33 95 58 159 116 394 132 530 3 25 6 50
7 55 3 22 22 23 60 3 73 -36 244 -138 255 -151 7 -9 2 -39 -19 -104 -38 -119
-69 -239 -85 -331 -21 -122 13 -222 99 -284 46 -33 100 -58 126 -58 9 0 46
-35 81 -77 157 -190 257 -260 388 -270 115 -9 259 40 340 116 18 17 37 31 41
31 9 0 52 -70 93 -155 45 -91 40 -89 118 -50 38 20 69 38 69 42 0 3 -19 45
-42 92 -115 231 -487 708 -686 879 -135 116 -314 240 -532 368 -132 78 -205
115 -443 228 -189 89 -328 197 -431 336 -73 99 -160 290 -181 399 -2 12 -6 30
-9 39 -22 72 -31 179 -31 362 0 234 26 445 54 445 7 0 29 -48 50 -110 69 -199
113 -295 187 -410 72 -112 146 -181 271 -255 197 -115 257 -154 358 -230 55
-41 107 -82 115 -90 9 -8 36 -32 60 -53 97 -84 230 -210 230 -218 0 -5 -39
-37 -86 -71 -127 -92 -122 -80 -68 -149 26 -32 51 -59 56 -59 4 0 67 42 138
93 316 224 638 402 867 477 67 21 134 42 150 45 109 20 146 26 203 31 121 12
316 7 410 -11 14 -3 39 -7 55 -10 305 -59 640 -225 1073 -532 73 -52 137 -93
141 -91 5 2 30 29 55 60 l46 57 -48 38 c-26 21 -71 54 -100 73 -28 19 -52 40
-52 47 0 13 176 179 300 282 99 83 289 212 444 302 254 148 349 293 511 787 9
27 24 9 34 -40z m-5489 -1084 c118 -256 327 -467 585 -590 44 -22 82 -40 84
-41 7 -4 -21 -180 -50 -311 -43 -202 -110 -412 -131 -412 -15 0 -248 238 -334
340 -136 162 -209 287 -222 378 -15 104 -3 685 15 715 8 14 13 6 53 -79z
m5631 39 c0 -21 2 -58 4 -83 15 -174 20 -443 10 -535 -17 -150 -87 -271 -285
-495 -104 -117 -271 -281 -284 -277 -33 11 -152 473 -171 667 l-6 55 85 39
c129 59 231 131 337 236 106 106 180 211 242 342 45 95 67 111 68 51z m-1312
-1173 c58 -195 67 -254 46 -301 -23 -51 -62 -69 -123 -58 -131 25 -362 10
-496 -31 -33 -11 -61 -18 -62 -17 -6 5 172 213 243 285 112 112 330 280 345
264 4 -4 25 -68 47 -142z m-2891 55 c62 -47 132 -102 154 -123 60 -55 269
-291 291 -328 6 -11 3 -12 -20 -3 -65 25 -224 50 -318 51 -94 1 -235 -9 -244
-17 -7 -8 -61 26 -75 48 -23 35 -25 69 -10 143 25 116 86 314 98 314 6 0 62
-38 124 -85z"/>
<path d="M2972 2741 c-10 -6 -12 -59 -15 -310 -2 -119 1 -145 13 -152 138 -78
193 -109 196 -109 1 0 40 -21 86 -48 46 -26 96 -54 111 -62 16 -8 37 -31 48
-52 l19 -37 -56 -123 c-30 -68 -58 -126 -62 -130 -18 -18 -290 -30 -367 -15
-112 21 -151 30 -160 37 -5 4 -21 10 -35 13 -79 19 -239 158 -281 244 -41 86
-21 217 51 335 17 27 28 53 26 57 -3 4 -30 27 -59 50 -55 42 -75 45 -92 12 -6
-10 -24 -45 -41 -77 -35 -64 -63 -142 -70 -189 -5 -36 -6 -134 -1 -155 23 -97
60 -163 140 -248 110 -116 273 -204 417 -227 19 -3 62 -11 96 -18 93 -20 264
-10 479 26 14 3 32 30 61 96 50 111 60 123 73 90 34 -89 81 -178 97 -183 11
-3 37 -8 59 -11 22 -3 49 -7 60 -10 28 -6 182 -18 235 -19 46 -1 129 10 229
29 265 51 517 269 550 474 14 92 -1 201 -43 294 -28 65 -87 157 -99 157 -5 0
-35 -21 -68 -47 l-59 -46 22 -36 c117 -192 113 -323 -16 -455 -99 -102 -210
-158 -356 -182 -19 -3 -53 -9 -74 -14 -22 -5 -76 -7 -120 -5 -78 4 -216 21
-220 27 -1 2 -27 59 -58 128 l-56 124 19 36 c14 26 37 46 86 72 38 20 138 76
224 125 l156 88 -3 100 c-4 115 -13 350 -13 350 -1 1 -13 0 -28 -1 -16 -1 -47
-2 -70 -3 l-42 -1 4 -165 c3 -91 4 -165 2 -165 -2 0 -28 -4 -58 -10 -30 -5
-70 -11 -89 -14 -19 -3 -44 -7 -55 -10 -11 -2 -68 -12 -126 -21 l-106 -17
-159 26 c-87 15 -172 29 -189 32 -16 2 -43 7 -58 10 l-28 6 4 160 c2 108 0
161 -7 163 -22 7 -116 11 -124 6z"/>
<path d="M2048 2180 c-123 -44 -245 -104 -332 -162 -91 -61 -196 -171 -196
-205 0 -13 109 -73 132 -73 7 0 29 19 48 43 45 56 125 115 225 165 85 42 192
86 237 97 45 11 49 25 31 91 -9 32 -21 64 -27 71 -8 9 -37 2 -118 -27z"/>
<path d="M4880 2154 c-12 -35 -20 -71 -18 -80 2 -10 32 -26 83 -44 185 -63
343 -154 421 -244 l45 -53 57 28 c87 43 86 42 69 75 -32 59 -140 157 -237 214
-114 68 -212 111 -357 156 l-42 13 -21 -65z"/>
</g>
</svg>
